<?xml version="1.0" encoding="UTF-8"?>
<svg id="Capa_1" data-name="Capa 1" xmlns="http://www.w3.org/2000/svg" viewBox="0 0 532 532">
  <defs>
    <style>
      .cls-1 {
        fill: #1c7323;
      }

      .cls-1, .cls-2 {
        stroke-width: 0px;
      }

      .cls-2 {
        fill: #419240;
      }
    </style>
  </defs>
  <path class="cls-2" d="m65.83,96.29C110.21,44.62,166.15,14.26,233.67,5.22c19.62-2.63,39.31-2.99,58.93-.71,18.27,2.12,36.32,5.32,53.86,11.53,12.29,4.35,24.62,8.44,36.24,14.38,48.23,24.66,86.64,59.84,112.71,107.54,9.63,17.61,17.42,36.09,23.03,55.69,9.91,34.67,12.74,69.58,8.24,105.15-4.24,33.51-14.43,65.06-31.12,94.63-7.37,13.05-15.67,25.35-24.94,36.96-10.41,13.05-21.82,25.28-34.91,35.79-.68-.85-1.29-1.77-2.05-2.54-44.01-44.03-88.02-88.06-132.05-132.07-1.53-1.53-3.02-3.21-5.47-3.24.05-8.57.36-17.15.04-25.7-.18-4.89,1.17-6.72,6.32-6.56,10.93.34,21.88.06,32.83.04,20.97-.04,41.95.04,62.92-.14,14.82-.12,26.51-9.17,29.81-22.65,4.75-19.39-9.28-37.08-29.82-37.21-31.92-.19-63.84-.24-95.75-.06-5.16.03-6.5-1.64-6.47-6.61.15-30.64.02-61.28-.04-91.92,0-2.91-.03-5.85-.36-8.74-1.89-16.22-18.25-28.29-34.32-25.38-15.4,2.79-25.2,14.56-25.3,30.95-.19,31.74-.28,63.47-.11,95.21.03,5.1-1.56,6.53-6.49,6.33-8.56-.35-17.14-.05-25.71-.03-.19-3.3-2.78-4.99-4.8-7.01-42.84-42.88-85.7-85.74-128.58-128.59-1.41-1.41-2.98-2.66-4.47-3.98Z"/>
  <path class="cls-1" d="m65.83,96.29c1.49,1.32,3.06,2.57,4.47,3.98,42.87,42.85,85.74,85.71,128.58,128.59,2.01,2.01,4.61,3.71,4.8,7.01-2.54.15-5.08.42-7.62.42-21.16.02-42.32-.13-63.48.02-13.26.09-25.53,9.5-28.56,21.4-4.96,19.54,8.72,37.91,28.82,38.04,31.92.21,63.84,0,95.76-.02,7.62,0,7.65.02,7.64,7.46-.02,31.92-.21,63.84-.02,95.76.1,17.07,13.24,30,29.79,30.03,16.33.04,29.53-13.1,29.7-30.11.21-20.97.01-41.95.03-62.93,0-2.54.26-5.08.39-7.63,2.45.03,3.94,1.71,5.47,3.24,44.03,44.01,88.05,88.04,132.05,132.07.76.77,1.37,1.69,2.05,2.54-11.65,11.19-25.08,19.92-39.02,27.87-20.34,11.6-41.72,20.86-64.56,26.25-88.86,20.97-168.85,2.64-238.26-56.66C41.55,418.94,11.85,361.19,4.86,292.75c-7.37-72.16,12.5-136.78,57.85-193.47.89-1.12,2.08-2,3.12-2.99Z"/>
</svg>