<?xml version="1.0" encoding="UTF-8"?>
<svg id="Capa_1" data-name="Capa 1" xmlns="http://www.w3.org/2000/svg" viewBox="0 0 532 532">
  <defs>
    <style>
      .cls-1 {
        fill: #e54848;
      }

      .cls-1, .cls-2 {
        stroke-width: 0px;
      }

      .cls-2 {
        fill: #f9f9f9;
      }
    </style>
  </defs>
  <path class="cls-1" d="m234.84.1c20.08,0,40.16,0,60.24,0-.13.28-.43.67-.35.8.17.25.55.45.87.5,11.89,1.83,23.75,3.61,35.42,6.8,9.42,2.58,18.87,5.19,27.89,8.67,22.32,8.62,43.22,20.02,62.91,33.8,18.3,12.81,34.06,28.26,48.34,45.11,11.18,13.2,20.38,27.94,29.16,43,9.79,16.81,16.57,34.64,22,53.03,4.1,13.89,7.05,28.15,8.89,42.59.11.84-.81,3.02,1.69,2.5v60.24c-.34-.18-.43-1.09-1.08-.38-.12.12-.32.23-.34.36-1.07,6.47-1.94,12.98-3.21,19.42-12.98,65.71-46.64,118.73-98.86,160.19-14.67,11.65-30.68,21.23-47.6,29.32-25.63,12.25-52.51,20.17-80.66,23.86-1.01.13-3.69-1.18-2.98,1.97h-62.32c.18-.34,1.12-.41.41-1.07-.24-.23-.53-.5-.83-.55-9.02-1.58-18.17-2.61-27.04-4.77-83-20.22-143.63-68.62-181.58-145.16-12.54-25.29-20.08-52.18-23.66-80.17q-.26-2.06-2.03-3.02c0-20.08,0-40.16,0-60.24.14.1.27.22.42.3.12.06.26.08.39.12.38-1.49.92-2.95,1.12-4.46,5.54-43.59,20.49-83.55,45.93-119.49,27.13-38.32,61.77-67.75,104.18-87.95,25.3-12.05,51.86-19.78,79.65-23.4,1.04-.13,3.65,1.16,3.04-1.94Zm126.82,417.13c9.46-.07,17-3.36,23.28-9.67,7.08-7.11,13.92-14.5,21.35-21.23,13.49-12.22,14.36-34.25.21-47.76-23.27-22.23-45.66-45.39-68.43-68.16q-6.13-6.13.03-12.3c23.25-23.25,46.55-46.47,69.75-69.77,12.53-12.58,12.4-31.39-.13-43.93-8.32-8.33-16.44-16.86-25.03-24.9-6.96-6.52-15.37-8.58-25.04-7.52-8.43.92-14.17,5.21-19.83,10.96-23.07,23.44-46.51,46.51-69.59,69.93-3.25,3.3-4.75,3.13-7.89-.04-23.59-23.89-47.39-47.58-71.14-71.32-12.72-12.72-30.79-12.53-42.12-3.95-9.36,7.09-16.99,16.12-25.28,24.38-2.38,2.37-4.59,5.16-6.05,8.16-7.67,15.86-5.46,27.82,7.11,40.4,22.27,22.28,44.55,44.55,66.82,66.83,6.97,6.97,7.06,7.06-.16,14.06-12.77,12.38-24.89,25.41-38.1,37.37-10.63,9.63-20.51,20.12-30.55,30.39-12.69,13-12.68,32.53-.02,45.58,7.35,7.58,14.88,14.98,22.38,22.41,13.8,13.66,32.22,13.54,46.03-.26,23.75-23.74,47.55-47.43,71.16-71.3,2.99-3.02,4.53-3.2,7.63-.06,23.85,24.13,47.94,48.01,71.86,72.06,6.19,6.23,13.55,9.34,21.7,9.66Z"/>
  <path class="cls-2" d="m361.66,417.24c-8.15-.32-15.51-3.43-21.7-9.66-23.92-24.05-48.02-47.94-71.86-72.06-3.1-3.14-4.64-2.96-7.63.06-23.62,23.87-47.41,47.56-71.16,71.3-13.81,13.8-32.24,13.92-46.03.26-7.5-7.43-15.03-14.83-22.38-22.41-12.65-13.05-12.67-32.59.02-45.58,10.04-10.28,19.91-20.76,30.55-30.39,13.21-11.96,25.33-24.99,38.1-37.37,7.21-6.99,7.13-7.09.16-14.06-22.27-22.28-44.55-44.55-66.82-66.83-12.58-12.58-14.79-24.54-7.11-40.4,1.45-3,3.67-5.79,6.05-8.16,8.29-8.26,15.92-17.28,25.28-24.38,11.33-8.58,29.4-8.76,42.12,3.95,23.74,23.74,47.54,47.43,71.14,71.32,3.13,3.17,4.64,3.34,7.89.04,23.08-23.42,46.52-46.5,69.59-69.93,5.66-5.75,11.4-10.03,19.83-10.96,9.67-1.06,18.08,1,25.04,7.52,8.59,8.04,16.71,16.57,25.03,24.9,12.53,12.55,12.66,31.36.13,43.93-23.21,23.3-46.5,46.52-69.75,69.77q-6.17,6.17-.03,12.3c22.76,22.77,45.15,45.92,68.43,68.16,14.15,13.51,13.28,35.54-.21,47.76-7.43,6.73-14.27,14.12-21.35,21.23-6.28,6.31-13.82,9.61-23.28,9.67Z"/>
</svg>