<?xml version="1.0" encoding="UTF-8"?>
<svg id="Capa_1" data-name="Capa 1" xmlns="http://www.w3.org/2000/svg" viewBox="0 0 532 532">
  <defs>
    <style>
      .cls-1 {
        stroke-width: 0px;
      }
    </style>
  </defs>
  <path class="cls-1" d="m1.43,228.76c.12-36.89,6.76-69.39,21.8-100.27,12.56-25.8,28.58-49.01,49.66-68.31,21.86-20.01,46.99-35.18,74.85-45.57C187.53-.22,228.42-2.37,269.89,4.94c23.24,4.09,45.02,12.63,65.51,24.34,18.09,10.34,35.3,21.91,49.86,36.98,34.97,36.2,56.27,79.33,63.29,129.07,5.93,42.05-.11,82.71-17.32,121.68-4.79,10.84-10.41,21.16-17.01,30.94-2.28,3.38-1.69,5.43,1.01,8.11,33.32,33.15,66.47,66.46,99.83,99.56,10.14,10.06,17.08,21.13,16.62,36.15-.77,25.22-25.72,44.4-50.29,38.53-10.29-2.46-17.91-8.66-25.07-15.8-33.24-33.21-66.49-66.41-99.64-99.71-2.91-2.92-5.04-3.16-8.54-.87-29.67,19.44-62.21,30.84-97.48,34.77-49.29,5.5-95.19-5.04-138.06-29.22-38.49-21.71-66.82-53.07-87.01-92.36C9.21,295.24,1.74,261.55,1.43,228.76Zm224.35,138.08c76.77.76,140.18-62.06,141.72-138.89,1.56-77.35-61.84-143.09-139.68-144.27-77.83-1.18-142.04,63.99-143.62,137.77-1.76,82.02,65.44,146.4,141.57,145.39Z"/>
</svg>