<?xml version="1.0" encoding="UTF-8"?>
<svg id="Capa_1" data-name="Capa 1" xmlns="http://www.w3.org/2000/svg" xmlns:xlink="http://www.w3.org/1999/xlink" viewBox="0 0 532 532">
  <defs>
    <style>
      .cls-1 {
        fill: #fefefe;
      }

      .cls-1, .cls-2, .cls-3, .cls-4, .cls-5, .cls-6, .cls-7, .cls-8 {
        stroke-width: 0px;
      }

      .cls-3 {
        fill: none;
      }

      .cls-4 {
        fill: #6b090c;
      }

      .cls-5 {
        fill: #941116;
      }

      .cls-6 {
        fill: #d10103;
      }

      .cls-9 {
        clip-path: url(#clippath);
      }

      .cls-7 {
        fill: #fdfdfd;
      }

      .cls-8 {
        fill: #fcfcfc;
      }
    </style>
    <clipPath id="clippath">
      <rect class="cls-3" x="-552" width="532" height="532"/>
    </clipPath>
  </defs>
  <g class="cls-9">
    <path class="cls-3" d="m-104.23,72.44l-53.34,54.36c1.45,1.56,2.46,3.56,3.14,6.07,1.65,6.01,3.89,11.86,5.9,17.88,7.08-3.1,13.77-6.39,20.71-9.01,28.81-10.89,57.79-11.14,86.73-.57,2.69.98,5.45,3.12,7.04,5.51,2.15,3.25,1.35,7.06-1.23,10.1-2.91,3.42-6.55,3.55-10.68,2.6-10.72-2.46-21.42-5.72-32.29-6.7-22.89-2.06-44,4.77-63.6,16.53-1.26.76-2.13,3.56-1.94,5.27,1.73,15.26,1.73,30.41-2.13,45.36-4.47,17.29-13.37,31.76-26.44,43.1-19.81-20.2-39.59-40.36-59.38-60.53l-15.08,15.37c26.73,27.26,53.45,54.5,80.36,81.95-6.29,6.02-13.11,12.55-20.43,19.56,6.51,6.54,12.42,12.66,18.6,18.47.98.92,3.33.86,4.89.53,15.09-3.23,30.14-6.67,45.22-9.95,7.65-1.67,13.67,2.81,13.5,9.95-.11,4.84-2.39,8.48-7.04,9.56-19.94,4.64-39.92,9.08-59.93,13.37-1.28.27-3.27-1.03-4.4-2.15-7-6.91-13.85-13.99-20.76-21-1.25-1.27-2.55-2.48-3.84-3.74-7.2,7.59-14.17,14.93-21.85,23.03,7.18,7.11,14.67,15.12,22.82,22.37,5.46,4.86,7.54,10.15,7.56,17.56.06,19.87,1.03,39.73,1.54,59.6.19,7.54-3.52,12.1-9.67,12.31-6.15.21-10.27-4.19-10.5-11.62-.55-17.88-1.12-35.76-1.33-53.65-.07-5.52-1.61-9.64-5.69-13.43-6.58-6.12-12.6-12.86-18.9-19.38-9.92,10.45-19.47,20.51-29.31,30.87,9.26,9.11,19.26,18.96,30.31,29.84-9.52,9.29-17.87,17.82-26.66,25.85-4.12,3.76-5.68,7.7-5.53,13.34.39,15.4.23,30.81.1,46.22-.07,9.08-8.51,14.47-15.31,9.53-2.4-1.75-4.64-5.58-4.7-8.5-.41-20.37-.29-40.75-.13-61.13.01-1.68,1.28-3.66,2.52-4.96,6.32-6.65,12.81-13.12,19.83-20.24-5.59-5.63-10.69-10.97-16.07-15.98-.86-.8-3.32-.8-4.47-.14-33.43,19.13-68.8,19.42-105.05,11.48-.3-.07-.58-.25-1.28-.58.99-1.18,1.84-2.32,2.82-3.32,14.8-15.13,29.68-30.19,44.4-45.4,2.3-2.38,4.52-3.03,7.73-2.68,8.23.9,16.51,1.49,24.78,1.81,1.78.07,4.01-1.1,5.35-2.42,7.49-7.35,14.84-14.86,22.08-22.46,2.14-2.25,3.82-2.97,7.08-1.78,11.09,4.07,23.25-.62,29.24-10.69,5.94-9.99,4.41-22.87-3.71-31.08-8.14-8.24-20.92-9.75-30.51-3.61-9.99,6.39-14.3,18.35-10.33,29.83,1.04,2.99.64,4.74-1.53,6.84-5.99,5.83-11.63,12.05-17.74,17.75-1.63,1.53-4.46,2.52-6.7,2.45-8.44-.27-16.85-1.27-25.29-1.55-1.9-.06-4.3,1.22-5.72,2.66-18.38,18.51-36.7,37.09-54.82,55.86-2.96,3.07-5.53,3.77-9.35,2.22-5.07-2.06-10.32-3.66-16.78-5.91,9.78-9.73,18.77-18.55,27.63-27.51,15.34-15.52,30.65-31.07,45.83-46.74,2.16-2.23,3.85-2.6,6.72-1.56,11.22,4.07,22.85-.27,29.22-10.56,6.02-9.71,4.57-22.59-3.43-30.93l-9.42,9.6c1.95,2.06,3.14,4.87,3.14,8.03,0,6.54-4.91,11.7-11.21,11.82-3.19.06-6.07-1.21-8.16-3.3l-200.57,204.41,199.71,203.54L95.48,275.98-104.23,72.44Zm-165.84,242.49c6.45.08,11.27,5.02,11.3,11.61.03,6.69-5.18,11.92-11.72,11.78-6.24-.13-11.25-5.54-11.1-11.95.16-6.57,5.15-11.52,11.52-11.44Z"/>
  </g>
  <g>
    <path class="cls-2" d="m268.03,532c-29.29-.68-60.26-4.36-90.71-13.21-34.77-10.1-67.23-25.52-96.5-48.45-24.92-19.53-45.37-43.45-59.53-73.59-10.68-22.72-15.84-47.02-19.35-71.97-1.95-13.87-2.27-27.8-1.67-41.74,1.39-32.87,9.91-63.65,23.53-92.86,7.14-15.31,15.61-29.73,24.86-43.6,1.1-1.64,1.12-2.55.21-4.32-18.37-35.67-11.76-76.76,10.94-106.68C72.81,18.44,89.01,6.81,109.08,1.93c20.97-5.1,40,.16,57.6,12.8,12.51,8.98,22.29,20.94,30.51,34.47,1.36,2.24,2.53,3.16,5.29,2.76,28.7-4.17,57.52-6.77,86.5-5.73,17.26.62,34.4,2.55,51.13,7.53,1.75.52,3,.82,4.18-1.32,14.67-26.75,36.16-42.72,64.38-46.93,28.5-4.25,54.19,3.1,74.7,26.07,16.42,18.39,21.26,41,17.54,66.1-2.15,14.49-7.13,27.84-13.48,40.64-.93,1.88-1.01,3.05.03,4.85,18,31.18,30.91,64.71,38.01,100.76,8.86,44.99,9.5,89.94-3.14,134.29-4.68,16.42-9.42,33.1-19.24,47.01-17.33,24.54-38.85,43.89-63.24,59.51-22.89,14.66-47.28,25.49-72.82,33.16-31.7,9.52-64.08,13.73-99,14.12Z"/>
    <path class="cls-1" d="m258.45,154.46c0,27.97-.05,55.94.07,83.91.01,3.21-.57,4.25-3.73,4.62-29.43,3.44-54.36,16.6-73.09,42.12-8.51,11.59-13.99,24.67-13.69,40.07.24,12.46,5.45,22.26,12.98,30.95,1.11,1.28,1.96,2.36,1.97,4.29.06,26.91,12.03,46.91,30.9,62.7,11.99,10.04,25.66,16.22,40.44,19.32,2.38.5,2.87,1.39,2.85,3.79-.19,21.52-.36,43.03-.32,64.55,0,3.2-1.46,3.5-3.51,3.61-8.04.43-16-.75-23.93-1.76-28.6-3.65-56.63-10.37-83.38-22.13-36.24-15.93-68.37-38.54-93.63-71.81-14.61-19.25-23.47-41.49-29.23-65.37-4.98-20.63-7.98-41.63-7.5-63.02.65-28.64,6.86-55.9,17.81-81.93,7.99-18.98,18.02-36.57,29.15-53.49,4.21-6.41,4.19-13.53.74-19.8-17.82-32.49-8.04-72.06,15.2-96.07,11.39-11.77,24.59-19.51,40.33-21.35,17.47-2.04,32.23,5.04,45.45,16.83,8.55,7.63,15.52,16.84,21.4,26.98,4.66,8.04,11.08,10.46,19.4,8.97,12.14-2.16,24.33-3.71,36.66-4.18,4.72-.18,9.47-.6,14.22-.81,2.64-.12,3.51.52,3.5,3.7-.14,28.43-.08,56.87-.08,85.3-.32,0-.64,0-.97,0Z"/>
    <path class="cls-1" d="m267.69,249.76c35.38,1.35,64.9,15.78,84.87,48.7,20.29,33.45-5.73,64.18-29.62,67.75-11.57,1.73-22.66,1.25-32.94-5.62-7.89-5.27-13.37-13.1-18.13-21.4-3.1-5.39.42-20.95,4.85-25.37,3.87-3.86,8.71-6.14,12.84-9.58.22-.19.44-.38.68-.55,4.47-3.3,8.39-7.29,7.65-13.7-.73-6.26-5.7-8.52-10.45-9.93-14.02-4.18-28.02-3.88-41.8,1.48-.79.31-1.54.73-2.28,1.18-7.62,4.64-8.41,11.11-2.18,17.79,4.04,4.34,8.86,7.49,13.74,10.49,6.66,4.09,9.8,9.59,9.74,18.57-.05,7.52-2.29,11.84-7.72,15.84-9.66,7.12-18.99,14.58-30.7,17.46-20.66,5.07-39.78-4.43-48.55-24.69-4.5-10.38-3.61-20.94.26-31.23,7.88-20.92,22.56-34.75,40.44-44.88,15.37-8.7,31.85-12.54,49.3-12.32Z"/>
    <path class="cls-1" d="m189.93,364.23c7.08,5.02,14.43,6.7,22.06,7.01,1.93.08,3,.95,4.15,2.47,15.26,20.1,34.49,31.12,58.76,31.26,13.84.08,27.39-2.51,41.04-4.22,4.31-.54,8.64-.93,13.76-1.47-4.67,8.95-10.19,16.05-17.03,21.91-16.4,14.04-35.22,17.8-55.24,14.08-25.34-4.7-45.9-18.11-59.64-42.48-4.77-8.46-7.4-17.78-7.85-28.57Z"/>
    <path class="cls-1" d="m268.01,346.67c4.71,6.85,9,12.81,14.62,17.42,5.68,4.67,11.91,8.04,18.92,9.35,2.1.39,2.42,1.36,2.35,3.34-.2,5.21-.34,10.42-.34,15.63,0,1.9-.54,2.79-2.29,2.99-10.31,1.14-20.59,2.77-31.02,1.94-2.59-.21-3.57-.91-3.35-4.08,1.04-15.12.9-30.29,1.12-46.58Z"/>
    <path class="cls-1" d="m388.89,339.35c1.24,8.3,1.33,16.22.97,24.17-.07,1.52-.23,3.01-1.7,3.93-10.14,6.34-20.57,12.02-31.74,17.05,1.38-10.56,2.46-20.58.89-30.66-.19-1.21,0-1.99,1.29-2.34,10.42-2.83,20.39-7.09,30.29-12.14Z"/>
    <path class="cls-7" d="m351.09,359.2c.24,9.05-.24,16.97-1.65,24.82-.5,2.79-1.52,4.41-4.23,5.36-5.46,1.9-10.66,3.98-16.68,2.96-5.1-.86-10.35.28-15.45,1.28-2.06.41-2.69.06-2.54-2.42.27-4.58.19-9.2.19-13.8,0-1.63-.12-2.82,2.08-2.85,14.08-.21,27.12-3.79,38.29-15.36Z"/>
    <path class="cls-7" d="m421.84,318.09c0,7.7,0,14.69,0,21.67,0,1.68-.87,2.77-2.03,3.8-7.17,6.34-14.61,12.26-22.92,18.06-.24-8.6.27-16.81-1.39-24.83-.33-1.59,1.28-1.77,2.2-2.31,8.1-4.81,15.86-10.22,24.13-16.38Z"/>
    <path class="cls-8" d="m429.08,334.02c-.48-6.7.22-13.27-.79-19.73-.21-1.34.61-1.95,1.39-2.59,11.87-9.81,22.94-20.62,33.55-32.36-1.77,13.38-20.69,43.66-34.15,54.68Z"/>
    <path class="cls-5" d="m434.75,239.75c-.43.39-.95.71-1.28,1.19-2.32,3.41-3.69,2.41-5.04-.99-6.52-16.33-16.74-18.46-30.09-13.39-7.55,2.87-14.5,7.08-20.92,12.34-3.21,2.63-4.73,2.2-5.67-1.99-2.93-13.14-12.85-17.43-24.41-14.47-10.51,2.69-20.78,6.29-31.29,8.91-.65.16-1.35.1-2.49.17,1.6-3,4.04-4.21,6.13-5.75,12.68-9.39,24.79-19.54,35.18-31.92,1.9-2.27,2.8-2.16,4.12.65,1.78,3.8,3.73,7.61,6.19,10.9,6.64,8.85,15.67,10.73,25.45,9.04,6.68-1.15,12.99-3.73,18.8-7.67,1.29-.88,2.8-1.36,4.21-2.03.4-.38.75-.33,1.06.13.04,2.07-1.43,2.9-2.74,3.72-8.02,4.99-16.48,8.83-25.79,9.21-12.44.52-21.54-5.77-27.29-17.7-1.36-2.81-2.4-3.48-4.58-1.1-8.27,9.04-17.33,17.02-26.99,24.22-.55.41-1.1.88-1.35,2.11,5.2-1.88,10.37-2.37,15.27-4.13,5.72-2.06,11.64-2.41,17.51-1.75,6.96.78,11.1,6.09,14.33,12.29,2.56,4.89,2.46,4.94,6.95,1.72,7.55-5.43,15.5-9.7,24.54-11.53,10.89-2.21,18.56,2.69,24.28,12.2,1.54,2.56,3.12,4.16,6,3.73.47.66.41,1.3-.09,1.91Z"/>
    <path class="cls-4" d="m414.64,204.92c-.33-.06-.67-.12-1-.19,6.16-5,12.44-9.85,18.47-15.03,8.38-7.21,15.98-15.38,23.39-23.76.91-1.03,1.71-2.96,3.32-2.26,1.84.8.53,2.67.6,4.08.52,11.43-.7,22.66-3.63,33.61-1.65,6.15-3.74,12.18-7.26,17.45-.4-.22-.65-.57-.74-1.05.88-5.48,3.74-10.16,5.18-15.44,3.01-11.05,4.38-22.29,4.38-34.8-3.85,4.11-6.97,7.56-10.11,11-8.44,9.27-17.81,17.29-27.72,24.58-1.42,1.05-2.75,2.84-4.87,1.79Z"/>
    <path class="cls-4" d="m434.75,239.75c.03-.59.05-1.17.08-1.76-.16-1.33.46-2.35,1.21-3.26,3.72-4.52,6.85-9.5,9.84-14.61.53-.91,1.09-1.78,2.26-1.64.13.11.25.22.38.34-3.34,7.95-7.9,14.95-13.77,20.93Z"/>
    <path class="cls-2" d="m200.29,224.06c-.01,13.9-10.27,25.06-23.03,25.08-12.85.01-23.3-11.43-23.24-25.46.06-13.64,10.72-25.24,23.15-25.2,12.84.04,23.13,11.43,23.12,25.58Z"/>
    <path class="cls-6" d="m448.13,218.49c-4.09,6.78-8.21,13.55-13.31,19.51-2.73,2.57-4.18,1.71-5.99-1.66-7.62-14.18-17.47-16.41-31.17-11.34-7.22,2.67-13.67,6.82-19.88,11.47-2.86,2.15-3.83,1.68-4.8-2.04-2.15-8.27-9.51-13.82-17.27-14.03-9.83-.27-18.95,3.2-28.21,6.02-1.33.41-2.95,1.3-3.75-.42-.79-1.72,1.12-2.28,2.02-2.96,10.49-7.97,20.47-16.6,29.37-26.65,2.58-2.92,3.6.16,4.23,1.73,6.71,16.57,20.03,21.2,35.01,17.15,7.31-1.97,14.27-5.09,20.25-10.34,11.38-7.09,21.36-16.19,30.78-26.04,4.13-4.32,7.95-8.98,12.62-14.29.86,8.93-.14,16.43-1.06,23.91-1.3,10.56-4.86,20.35-8.84,29.99Z"/>
  </g>
</svg>