<?xml version="1.0" encoding="UTF-8"?>
<svg id="Capa_1" data-name="Capa 1" xmlns="http://www.w3.org/2000/svg" viewBox="0 0 128 128">
  <defs>
    <style>
      .cls-1 {
        stroke-width: 0px;
      }
    </style>
  </defs>
  <path class="cls-1" d="m128,61.24v6.5c-.07.28-.18.55-.2.84-.37,4.57-1.1,9.08-2.43,13.47-4.24,14.02-12.32,25.34-24.15,33.93-7.64,5.55-16.16,9.2-25.48,10.88-2.74.49-5.51.76-8.27,1.14h-7.25c-.9-.1-1.81-.21-2.71-.31-13.47-1.5-25.53-6.44-35.58-15.56C3.89,95.79-3.1,75.44,1.25,51.48c2.51-13.85,9.4-25.47,19.8-34.9C31.93,6.71,44.79,1.23,59.48.17c12.11-.87,23.54,1.54,34.26,7.19,11.66,6.13,20.52,15.14,26.77,26.69,3.53,6.53,5.82,13.51,6.78,20.9.27,2.09.47,4.2.7,6.3Zm-25.1-41.08C81.03.69,49.75,1.35,29.76,16.44c2.63-.03,4.94.58,7.3,2.3h3.21c-.67-2.14-2.59-.68-3.51-1.33.06-.48.27-.96.12-1.27-.11-.23-.67-.31-1.05-.35-.57-.06-1.16-.01-1.74-.01.82-.91,1.65-1.55,2.49-2.15,1.3-.92,3.8-.5,4.72.76,1.02,1.4,2.87,1.57,4.12.3.63-.64,1.14-.74,1.73-.09-1.06,1.78-2.65,2.5-4.78,2.12.12.8.21,1.4.3,2.02.83,0,1.54.03,2.24,0,.44-.02,1.18-.02,1.26-.23.35-.9,1.07-.84,1.75-.84,1.07,0,1.51-.44,1.29-1.54-.4-.1-.78-.21-1.16-.3.04-.93.45-1.51,1.33-1.55,1.23-.05,2.47-.01,3.86-.01-.59,1.29-2.52,1.63-1.67,3.13.3.53,1.34.63,2.28,1.03-.05-.98-.14-1.59-.1-2.2.02-.32.15-.82.38-.92.89-.42,1.83-.73,2.76-1.05,2.38-.82,4.34.44,6.42,1.24,1.36.52,2.21,1.17,1.91,2.75-.01.06.07.14.11.21.49.16.99.33,1.48.49-.61,1.58-.62,1.64-2.13,1.57-.87-.04-1.33.24-1.51,1.08-.06.27-.23.52-.38.85-1.79-.43-3.53-.84-5.59-1.33,1.63-.89,2.96-1.61,4.49-2.45-.81-.54-1.42-1.28-2.03-1.29-1.26-.01-2.59.19-3.76.64-1.07.41-1.97,1.26-3.08,2,.07.12.31.51.49.8-.89.5-1.76.98-2.73,1.52-.21-.8-.34-1.31-.58-2.2-2.22,1.18-4.3,2.26-6.36,3.39-1.46.8-1.51,2.49.02,3.29,1.1.58,2.4.78,3.72,1.18,0,.42,0,.91,0,1.41,0,.52,0,1.05,0,1.57.14.09.28.17.43.26.45-.42.94-.8,1.33-1.27.49-.58.83-1.7,1.34-1.77,2.49-.33,2.94-1.81,2.62-3.9-.02-.16-.07-.41.01-.49.65-.6,1.33-1.62,2.02-1.64,1.26-.04,2.55.53,3.84.84-.08.92-.15,1.7-.25,2.87,1.54-.6,2.83-1.1,4.25-1.65,0,.7.05,1.24,0,1.78-.12,1.13.28,1.93,1.37,2.33.95.35.91,1.08.92,1.92,0,.93-.69.88-1.21,1.14-.31.15-.58.38-.87.57.28.26.54.55.84.78.19.15.44.24.68.31.97.3,1.34.88.85,2.05-.89-.25-1.8-.49-2.69-.77-1.47-.45-1.51-.66-.61-1.87.19-.26.08-.73.11-1.11-.33.09-.76.07-.97.28-.79.75-2.36.66-3.14.03-.49-.39-1.32-.41-2-.45-.16-.01-.49.55-.49.85,0,.26.34.58.61.73.34.19.76.23,1.29.38-.37.41-.65.74-.97,1.1-.82-.9-1.49-.78-2.24.01-.94.99-1.84,2.17-3.01,2.77-2.27,1.16-3.85,3.01-5.55,4.77-.19.2-.38.5-.37.75.04,1.04-.57,1.57-1.38,2.03-.72.41-1.4.9-2.09,1.37-1.43.99-2.51,2.16-2.07,4.11.09.42.01.87.01,1.48-.82-.39-1.68-.56-2.09-1.08-.39-.5-.31-1.37-.45-2.14-2.17,0-4.33-.27-6.39.09-1.46.26-3.02,1.11-4.07,2.16-.93.93-1.23,2.49-1.8,3.78-.54,1.24.07,2.47.88,2.99.9.58,2.27.83,3.42.03,1.19-.82,2.41-1.61,3.63-2.42,1.16,1.62-.5,2.65-.7,3.98,1.09.2,2.15.4,3.24.61.07.88.15,1.7.21,2.53.06.87.11,1.74.18,2.69.6.11,1.19.15,1.73.34,2.13.79,3.74.24,4.91-1.73.48-.81,1.09-1.45,2.24-.98.83.34,2.18.25,2.5.81.89,1.56,2.12,1.51,3.5,1.28.54-.09,1.03-.42,1.8-.75,1.3.54,1.36.51,2.61,2.67.6,1.03,1.29,1.6,2.47,1.34,1.86-.42,2.76.66,3.3,2.16.23.65.33,1.39.3,2.08-.04.94.46,1.21,1.21,1.57,2.29,1.13,4.71,1.23,7.18,1.18.4,0,1.04.13,1.18.4.76,1.47,1.75,2.59,3.92,2.76-.66,1.27-1.04,2.37-1.72,3.24-1,1.27-1.84,2.51-1.8,4.23.03.99-.36,2-.28,2.98.14,1.65-.73,2.66-2,3.25-.84.39-1.91.35-2.87.36-.71,0-1.07.24-1.5.81-.86,1.15-.37,2.24-.08,3.33.27,1,.19,1.77-.55,2.6-1.08,1.21-2.23,2.45-2.93,3.88-1.16,2.37-3.29,2.96-5.47,3.65-.5.16-.96.44-1.43.66.42.29.85.59,1.27.89.07.05.12.11.41.36-.53.74-1.07,1.5-1.81,2.53.89.37,1.71.7,2.61,1.07,0,.08.06.31,0,.48-.92,2.1-.47,3.72,1.58,4.88.14.08-.14,1.27-.18,1.27-1.33-.07-2.71.47-3.95-.53-1.95-1.56-3.49-3.39-4.65-5.61-.63-1.21-1.03-2.36-.72-3.67.43-1.77.02-3.23-1.23-4.56-.34-.37-.45-1.11-.4-1.66.1-1.23.37-2.44.6-3.77-1.17,0-1.24-.69-1.22-1.52.04-2.12-.15-4.27.06-6.37.19-1.94-.55-3.07-2.12-4.03-1.6-.97-3.88-1.31-4.07-3.82-.01-.14-.19-.26-.3-.39-.73-.91-1.39-1.88-2.2-2.72-1.14-1.19-1.83-2.42-1.14-4.1.15-.37.16-.84.1-1.24-.22-1.49.44-2.45,1.73-3.07.15-.07.27-.2.42-.28.81-.41,1.05-1,.9-1.93-.39-2.48-.35-2.43-2.88-2.65-.85-.08-2-.24-2.45-.81-1.82-2.3-3.83-4.11-6.91-4.32-.03,0-.06-.05-.12-.11v-1.66c-.93.27-1.76.82-2.44.66-2.25-.52-4.9-.37-6.04-3.16-.29-.71-.72-1.21-.18-2.01.2-.3.03-1.03-.21-1.39-1.51-2.19-3.17-4.29-3.22-7.14,0-.06-.09-.13-.19-.25-.31.02-.66.04-1.01.06-.16,2.27.67,4.11,1.92,5.85.4.56.45,1.36.67,2.05-.15.12-.29.23-.44.35-.67-.29-1.59-.4-1.96-.91-1.37-1.89-2.61-3.89-2.1-6.43.06-.28.09-.61-.01-.87-.16-.41-.37-1.02-.68-1.11-1.6-.46-1.99-1.52-1.75-3.01.03-.19-.04-.4-.09-.8-11.46,26.58-1.32,61.12,28.98,75.58,28.66,13.68,58.03.9,70.43-15.97-.5-.03-1-.06-1.63-.1,0-1.03.04-2.02-.02-3-.03-.47-.11-1.07-.41-1.37-1.64-1.64-2.1-3.6-1.81-5.82.12-.94-.19-1.65-.91-2.3-1.07-.96-1.2-2.18-.52-3.48.4-.78.76-1.58,1.23-2.32.45-.71.45-1.3,0-2.05-1.11-1.81-2.14-3.67-3.14-5.54-.25-.47-.34-1.09-.32-1.64.05-1.32.21-2.63.33-4-.45-.07-.77-.14-1.09-.17-1.36-.11-2.59-.26-3.77-1.26-.6-.51-2.06-.09-3.1.06-.73.1-1.4.57-2.12.7-1.2.22-2.41.33-3.63.43-1.11.09-2.15.15-2.99-.98-1.2-1.6-2.61-3.03-3.93-4.53-.62-.7-1.08-4.94-.63-5.74.04-.07.12-.11.16-.17.39-.63.78-1.26,1.27-2.05-.81-.14-1.2-.21-1.41-.25-1.01-1.4-.46-2.19.7-2.93,1.37-.87,2.61-1.94,3.98-2.81.89-.57,1.22-1.23,1.12-2.26-.06-.64-.13-1.66.21-1.88,1.22-.76,2.3-1.92,4.01-1.69,1.53.2,3.08.22,4.43-.8.22-.17.53-.27.81-.3,2.03-.17,4.06-.3,6.22-.46v3.31c1.31.34,2.53.61,3.72.98,1.14.35,2.24.78,3.46,1.21.05-.79.08-1.32.11-1.86,1.63-.38,3.13-.57,4.45.74,1.85,1.83,4.11.73,6.43,1.04-.46-1.38-.9-2.41-1.15-3.49-.28-1.24-.89-1.63-2.17-1.52-1.9.17-2.93-.89-3.1-2.85-.04-.44-.11-.87-.17-1.29-2.32.38-1.65,2.55-2.59,3.97-.75-.99-1.94-1.85-1.97-2.74-.05-1.78-1.11-2.59-2.15-3.67-1.07-1.11-2.19-1-3.38-.87-.13,2.85,2.72,2.86,3.89,4.17-.16.59-.41,1.02-.35,1.4.2,1.14-.61,1.4-1.36,1.53-.85.15-1.66-.08-1.9-1.11.69-.43,1.87.48,2.18-.81-1.5-1.61-3.98-2-4.93-4.32-.91,1-1.84,1.89-3.32,1.3-.14-.06-.47.15-.61.32-.86,1.08-2,2.06-2.44,3.29-.57,1.6-1.64,1.64-2.9,1.65-.67,0-1.35.1-2-.02-1.07-.18-2.14-.44-2.15-1.9,0-.58-.24-1.16-.22-1.73.04-1.02.2-2.07,1.57-2.1,1.55-.04,3.1,0,4.74,0,.09-.37.21-.84.34-1.37-.45-.16-.83-.3-1.23-.45.09-.63.08-1.24.3-1.76.15-.37.61-.85.94-.86,1.68-.04,2.82-.79,3.53-2.26.44-.91,1.17-1.36,2.19-1.34,1.14.02,2.28,0,3.49,0-.13-.87-.25-1.69-.39-2.6-.84.29-1.6.55-2.17.75-.61-.76-1-1.65-1.66-1.99-1.01-.52-1.43-1.32-.58-2.09.65-.59,1.54-.91,2.29-1.41.64-.42,1.24-.91,1.91-1.42Zm4.08,3.9c-.02,1.66-.29,2.99-2.13,3.47-.24.06-.38.5-.57.77.27.14.53.38.8.4.78.06,1.59-.06,2.36.06,1.11.17,1.53-.59,1.79-1.33.13-.36-.26-.99-.55-1.39-.51-.7-1.13-1.32-1.71-1.97Zm-64.16,10.67c.39-1.08-.12-1.74-.84-1.94-1.63-.45-3.37.35-3.66,1.74,1.54.07,3.04.14,4.5.2Zm-3.74,3.76c.73-1.02,1.47-2.07,2.27-3.2-1.81-.23-2.86.41-3.23,1.74-.23.83-.1,1.37.95,1.46Zm-9.59-19.05v1.09c2.49.33,3.66.26,3.21-1.71-1.05.2-2.11.41-3.21.62Zm6.3,11.46c1.53-.01,1.84-.96,1.87-2.52-1,.18-1.87.34-2.87.52.33.7.51,1.11.71,1.51.09.18.2.35.29.49Zm5.8,8.45c2.1.33,2.68-.08,2.49-1.76-1.57.02-2.31.54-2.49,1.76Zm-11.92-16.54c0,.17,0,.33,0,.5.95.4,1.98.18,2.97.02.15-.02.2-.65.37-1.28-1.3.3-2.31.53-3.33.76Zm15.58,13.47c-.14,1.92.13,2.11,2.17,1.82.25-1.81-1.42-1.07-2.17-1.82Zm-2.53.63c1.62-.01,2.03-.43,1.72-1.67h-1.72v1.67Zm74.93,3.25c-.49-1-.89-1.84-1.29-2.67-.11.04-.21.08-.32.12v2.65c.51-.03.92-.06,1.61-.1Z"/>
</svg>