<?xml version="1.0" encoding="UTF-8"?>
<svg id="Capa_1" data-name="Capa 1" xmlns="http://www.w3.org/2000/svg" viewBox="0 0 532 532">
  <defs>
    <style>
      .cls-1 {
        stroke-width: 0px;
      }
    </style>
  </defs>
  <path class="cls-1" d="m219.88,437.17c-94.1,1.97-193.66-70.8-208.46-186.13C-4.04,130.57,79.55,34.06,181.33,13.88c121.87-24.16,230.88,58.18,251.82,167.19,11.79,61.38-.23,117.59-36.91,168.21-4.96,6.84-4.86,10.65,1.23,16.64,38.39,37.82,76.37,76.06,114.47,114.17,4.25,4.25,8.74,8.33,9.98,14.7,2,10.26-1.97,19.87-10.4,24.77-8.51,4.95-20.13,3.28-28.2-4.75-38.2-38.02-76.26-76.17-114.37-114.28-10.58-10.58-10.42-10.36-22.83-1.79-36.89,25.5-77.55,39.12-126.25,38.42Zm3.74-383.02c-95.19,2.4-169.04,74.51-168.85,169.65.19,94.75,73.55,168.24,168.36,168.58,94.71.35,169.11-72.81,169.35-168.63.24-94.19-72.63-167.26-168.86-169.61Z"/>
</svg>