<?xml version="1.0" encoding="UTF-8"?>
<svg id="Capa_1" data-name="Capa 1" xmlns="http://www.w3.org/2000/svg" viewBox="0 0 532 532">
  <defs>
    <style>
      .cls-1 {
        fill: #0071bc;
        stroke-width: 0px;
      }
    </style>
  </defs>
  <path class="cls-1" d="m266,532.52c-12.95-13.23-25.81-26.54-38.86-39.68-18.78-18.91-37.57-37.81-56.63-56.44-4.48-4.37-4.72-7.21-.18-11.71,30.31-29.99,60.39-60.21,90.58-90.32,1.54-1.54,2.96-4.59,5.25-3.65,2.75,1.12,1.46,4.47,1.48,6.84.1,14.47.27,28.94-.04,43.4-.14,6.34,2.23,8.66,8.46,8.31,26.79-1.53,52.19-8.27,75.4-21.68,44.8-25.88,73.4-64.33,84.29-114.87,9.12-42.32,2.02-82.71-19.06-120.58-.7-1.26-1.38-2.53-2.76-5.08,5.49,2.36,7.37,6.36,9.94,9.51,33.02,40.29,50.58,86.62,47.46,138.58-4.77,79.4-42.71,138.59-114.12,175.37-25.5,13.14-52.73,19.53-81.15,20.98-6.89.35-8.56,2.99-8.48,9.25.23,17.25,0,34.52-.06,51.77h-1.52Z"/>
  <path class="cls-1" d="m269.05,2.52c21.84,23.71,45.38,45.75,67.96,68.73,9.25,9.41,18.55,18.78,28.07,27.92,3.98,3.82,4.19,6.62.14,10.65-30.8,30.57-61.43,61.32-92.13,91.98-1.2,1.2-2.36,3.33-4.25,2.6-2.39-.93-1.42-3.53-1.43-5.41-.08-14.97-.26-29.95.05-44.92.13-6.3-2.14-8.64-8.43-8.28-32.71,1.87-62.77,11.76-89.56,30.54-37.16,26.04-60.78,61.68-70.16,105.92-9.03,42.59-2.14,83.21,19.35,121.22.5.88.99,1.76,1.44,2.67.09.18-.02.47-.09,1.49-5.55-3.42-8.79-8.61-12.3-13.18-31-40.31-47.5-86.02-43.93-136.83,5.49-78.14,43.44-136.27,113.4-172.79,25.9-13.52,53.66-19.81,82.58-21.37,6.16-.33,7.72-2.83,7.68-8.42-.15-17.51.04-35.02.1-52.53h1.52Z"/>
</svg>