<?xml version="1.0" encoding="UTF-8"?>
<svg id="Capa_1" data-name="Capa 1" xmlns="http://www.w3.org/2000/svg" viewBox="0 0 532 532">
  <defs>
    <style>
      .cls-1 {
        fill: #fff;
        stroke-width: 0px;
      }
    </style>
  </defs>
  <path class="cls-1" d="m331.48,471.59c-.74-16.25,1.68-32.6-1.35-48.77-1.95-10.4-5.28-20.26-12.36-28.47-1.13-1.31-3.39-2.41-2.36-4.56.91-1.89,3.18-1.59,4.99-1.85,18-2.65,35.72-6.16,52.38-14,31.75-14.93,49.84-40.28,56.64-74.07,4.24-21.08,5.99-42.32,1.76-63.76-3.05-15.44-9.36-29.24-19.36-41.24-3.86-4.62-4.6-8.8-3.04-14.6,5.02-18.73,3.39-37.31-2.49-55.68-1.47-4.61-4.17-6.19-8.78-5.99-14.36.62-27.05,6.5-39.63,12.55-6.06,2.92-12.08,6.21-17.44,10.24-5.19,3.91-9.98,4.26-16.16,2.84-38.47-8.83-77.04-8.74-115.49.21-5.18,1.21-9.15.8-13.67-2.2-11.84-7.86-24.24-14.81-37.84-19.29-3.75-1.24-7.51-2.55-11.36-3.4-14.31-3.13-16.18-1.86-19.86,12.28-4.49,17.25-5.08,34.47.19,51.66.87,2.85,1.11,5.44-1,7.85-25.78,29.35-27.04,64.23-21.87,100.19,7.47,51.92,37.34,82.04,91.67,93.32,6.59,1.37,13.3,2.2,19.96,3.26,3.82.61,5.07,2.05,2.05,5.36-6.65,7.27-10.05,16.2-12.03,25.6-1.1,5.22-3.9,7.89-8.69,9.69-28.5,10.74-53.82,2.39-69.92-23.67-6.82-11.03-15.61-19.57-27.42-24.99-5.44-2.49-11.1-3.38-17.01-2.72-2.58.29-5.34.74-6.23,3.62-.82,2.65,1.37,4.26,2.98,5.89,5.38,5.46,12.73,8.3,17.87,14.36,6.26,7.38,11.95,15.12,15.2,24.07,11.6,31.96,40.31,40.74,67.63,39.07,5.57-.34,11.14-.96,16.64-1.85,4.19-.68,6.22.51,6.22,4.9-.01,15.13.38,30.27-.04,45.39-.29,10.44-9.1,15.13-20.51,11.39-15.31-5.01-30.01-11.55-43.91-19.63-47.36-27.54-83.89-65.61-107.54-115.05C3.19,332.87-3.81,273.61,10.67,212.06c12.42-52.78,38.48-97.69,78.09-134.38C128.01,41.32,174.22,18.45,227.45,10.81,302.51.04,370.53,17.57,429.95,64.56c54.74,43.29,87.64,100.32,97.54,169.46,11.06,77.26-8.45,146.93-57.38,207.72-30.88,38.37-70.04,65.74-116.68,82.09-13.87,4.86-21.92-.73-21.99-15.23-.03-6.28.02-12.57.03-18.86,0-6.05,0-12.1,0-18.16Z"/>
</svg>