<?xml version="1.0" encoding="UTF-8"?>
<svg id="Capa_1" data-name="Capa 1" xmlns="http://www.w3.org/2000/svg" viewBox="0 0 532 532">
  <defs>
    <style>
      .cls-1 {
        fill: #fff;
        stroke-width: 0px;
      }
    </style>
  </defs>
  <path class="cls-1" d="m532,244.18v43.64c-1.29,9.06-2,18.25-3.97,27.16-23.4,106.15-87.09,175.49-190.82,207.93-16.06,5.02-32.73,7.12-49.39,9.08h-43.64c-8.72-1.25-17.55-1.98-26.13-3.83-106.76-23-176.3-86.88-208.98-190.95-4.93-15.72-6.93-32.07-9.07-48.36,0-15.24,0-30.48,0-45.72,1.24-8.37,2.29-16.78,3.76-25.11C21.36,118.22,97.77,35.05,195.77,8.74c15.58-4.18,31.44-6.6,47.37-8.74h45.72c10.57,1.69,21.3,2.44,31.73,4.97,103.7,25.19,171.31,88.76,202.58,190.81,4.83,15.76,6.89,32.08,8.83,48.39ZM266.41,113.46c-24.76.89-49.38-.08-73.88,2.27-27.76,2.67-50.36,14.49-65.13,38.97-9.21,15.27-12.12,32.32-12.67,49.78-1.24,39.47-1.4,78.94-.17,118.42.26,8.32.73,16.62,2.28,24.78,6.44,33.93,25.77,56.3,59.42,65.7,8.39,2.35,17.01,3.56,25.62,3.78,45.86,1.2,91.76,2.54,137.56-.99,27.16-2.1,49.37-13.95,64.3-37.6,9.35-14.81,12.91-31.42,13.39-48.5,1.3-45.68,2.19-91.39-.8-137.06-2.81-42.9-34.55-74.39-77.46-77.43-24.2-1.72-48.44-1.15-72.47-2.12Z"/>
  <path class="cls-1" d="m266,391.97c-20.95.09-41.9.18-62.82-1.04-15.78-.92-30.91-3.93-43.26-15-13.84-12.4-17.88-28.85-18.81-46.33-1.88-35.46-1.25-70.97-.8-106.45.15-11.71.23-23.52,2.57-35.15,5.36-26.69,23.39-43.3,50.46-45.97,30.73-3.03,61.57-1.78,92.37-1.96,17.48-.11,34.96.16,52.37,1.9,29.75,2.99,48.93,22.25,51.95,52.13,2.11,20.88,1.89,41.82,1.92,62.76.03,23.89.24,47.78-.98,71.65-.32,6.23-1.05,12.42-2.51,18.49-6,24.9-23.91,40.31-49.83,42.97-24.16,2.48-48.4,1.85-72.63,1.99Zm-.28-48.32c43.19.06,77.81-34.2,77.93-77.12.12-43.5-34.14-78.12-77.37-78.18-43.2-.06-77.81,34.19-77.93,77.11-.12,43.49,34.16,78.13,77.37,78.19Zm99.59-159.19c0-9.31-8.15-17.58-17.52-17.77-9.56-.19-17.92,8.06-17.99,17.76-.07,9.4,7.96,17.55,17.47,17.73,9.57.19,18.03-8.12,18.04-17.73Z"/>
  <path class="cls-1" d="m265.96,214.69c28.78,0,51.36,22.59,51.35,51.38-.01,28.72-22.68,51.26-51.51,51.23-28.65-.03-51.15-22.78-51.1-51.65.05-28.39,22.75-50.96,51.26-50.96Z"/>
</svg>