<?xml version="1.0" encoding="UTF-8"?>
<svg id="Capa_1" data-name="Capa 1" xmlns="http://www.w3.org/2000/svg" viewBox="0 0 1060 532">
  <defs>
    <style>
      .cls-1 {
        font-family: SegoeUI-Bold, 'Segoe UI';
        font-size: 138px;
        font-weight: 700;
      }

      .cls-1, .cls-2 {
        fill: #fff;
      }

      .cls-2 {
        stroke-width: 0px;
      }
    </style>
  </defs>
  <g>
    <path class="cls-2" d="m288.14,529.99h-43.19c-3.72-.53-7.43-1.1-11.15-1.57-52.47-6.57-99.28-26.65-138.75-61.68C21.77,401.7-7.96,319.83,6.65,223.04c8.4-55.64,33.74-103.83,74.25-143.02C150.33,12.89,233.08-10.38,327.23,10.3c58.36,12.82,106.14,44.09,143.9,90.42,26.32,32.28,43.98,68.79,52.98,109.51,2.7,12.23,4.17,24.6,5.66,37v41.13c-.26,1.51-.59,3.02-.75,4.54-4.01,37.24-14.7,72.36-33.72,104.72-36.65,62.35-89.72,103.63-159.31,123.59-15.67,4.5-31.76,6.61-47.85,8.79ZM43.55,178.13c-2.27,1.91-2.52,3.85-3.14,5.55-14.68,40.31-18.32,81.64-11.19,123.89,20.55,121.86,134.12,214.32,267.32,198.19,44.03-5.33,83.52-22.2,118.49-49.49,12.45-9.72,23.91-20.55,34.04-32.71.87-1.04,4.11-3.32.56-3.87-5.07-.78-4.24-3.88-4.46-7.02-.28-4.19,1.3-8.89-2.08-12.33-6.58-6.69-8.13-14.71-7.15-23.6.4-3.67-.86-6.52-3.57-9.13-4.42-4.27-5.74-9.8-1.99-14.84,7.33-9.84,6.35-18.64-.98-27.62-.85-1.05-1.23-2.48-2.07-3.54-6.32-7.92-7.8-16.89-5.57-26.52,1.12-4.86-1.26-6.27-5.35-6.32-4.92-.06-9.15-1.08-13.13-4.62-3.52-3.13-8.81-3.03-12.43-.26-3.79,2.91-7.58,3.51-11.93,3.45-3.92-.05-7.79.1-11.71.99-5.37,1.22-10.35.6-14.03-4.68-2.92-4.19-6.39-8.13-10.19-11.54-7.2-6.47-10.26-14.13-8.81-23.74.5-3.34,0-6.58,3.26-9.22,2.19-1.77,2.75-4.47-.98-6.5-4.63-2.52-4.82-8.58-.68-11.67,5.36-3.99,10.6-8.2,16.28-11.68,5.12-3.13,7.6-6.97,6.78-13.02-.28-2.1-.72-4.82,1.52-6.16,5.34-3.21,10.21-7.49,17.25-6.89,4.37.37,9.06,1.17,13.15-1.05,4.18-2.28,8.52-3.39,13.21-3.62,4.1-.2,8.21-.43,12.29-.89,8.41-.94,8.65-.99,8.53,7.28-.06,4.66,1.77,6.61,6.2,7.72,6.09,1.52,12.52,2.17,17.97,5.82,2.39,1.6,3.85.56,4.19-2.2.2-1.65-.22-4.01,1.91-4.29,4.59-.6,9.73-3.28,13.72.69,6.78,6.74,14.9,7.42,23.69,6.9,3.74-.22,5.1-1.28,3.73-4.97-1.13-3.05-2.28-6.11-3.13-9.25-1.03-3.83-3.38-4.99-7.19-4.96-8.96.07-12.74-3.45-14.14-12.47-.23-1.49-.14-3.48-1.97-3.8-2.07-.36-3.65,1.05-4.29,2.95-.99,2.91-1.6,5.95-2.52,8.89-.45,1.43-1.19,3.45-3.11,1.61-3.06-2.94-7.87-5.7-7.83-9.78.08-8.25-5.36-11.99-10.4-16.54-2.27-2.05-4.72-2.48-7.55-2.41-2.89.07-3.38,1.3-2.76,3.97,1.09,4.68,4.91,6.28,8.45,8.33,3.98,2.29,8.76,3.39,5.78,10.49-2.17,5.17-6.63,8.75-11.68,6.05-1.72-.92-3.41-2.28-2.96-4.33.42-1.94,2.53-1.17,3.98-1.33,1.31-.15,3.06.41,3.67-1.13.81-2.03-1.34-2.44-2.42-3.35-5.15-4.36-12.28-6.28-15.77-12.73-.16-.3-1.13-.56-1.25-.43-3.73,4.33-8.65,4.67-13.84,4.36-.49-.03-1.13.74-1.53,1.27-3.34,4.35-7.56,8.32-9.69,13.2-2.42,5.54-5.94,6.9-11.19,6.52-1.87-.14-3.77,0-5.65-.01-11.4-.03-17.54-9.63-13.03-20.29.94-2.21,2.31-3.51,4.73-4.19,5.23-1.46,10.37-1.97,15.65-.39,1.82.54,3.82.99,4.91-1.29,1.05-2.21.08-3.53-2.04-4.36-1.01-.39-1.5-1.22-1.69-2.37-.88-5.51,1.85-9.92,7.41-10.49,4.92-.51,8.46-2.44,10.7-6.76,4.1-7.92,10.96-8.88,18.78-7.61,1.75.28,4.08,1.43,4.96-.94.75-2.03.55-4.56-.57-6.48-1.34-2.31-3.44-.81-5-.07-3.37,1.59-5.51.93-6.62-2.76-.66-2.19-1.89-3.83-4.24-4.77-4.55-1.82-5.26-5.32-2.37-9.22,2.76-3.73,7.02-4.68,10.91-6.38,5.56-2.42,6.04-5.18,1.5-8.9-47.32-38.8-101.3-58.08-162.75-56.21-35.91,1.1-69.68,9.98-101.59,26.17-10.12,5.14-20.01,10.79-30.23,18.84,6.91-.85,11.94.17,16.84,2.57,2.19,1.07,4.9,1.69,7.52,1.23,1.97-.34,3.81-1.27,3.63-3.57-.16-2-2.09-1.94-3.62-2.03-1.54-.09-3.09-.03-4.62-.12-1.17-.07-2.73.1-3.08-1.27-.34-1.33,1.11-1.99,2.03-2.69,2.58-1.98,5.16-3.98,7.84-5.82,6.07-4.18,16.53-2.65,20.94,3.14,1.56,2.05,3.39,2.97,5.9,3.57,4.75,1.13,8.28-.18,11.36-3.8,1.87-2.21,4.16-1.49,5.82.28,1.84,1.96-.53,2.97-1.49,4.14-3.28,4.02-7.14,6.8-12.78,5.97-1.86-.27-4.06-.11-3.85,2.74.17,2.31.65,4.54,3.71,4.6.86.02,1.72-.06,2.57.03,6.99.74,11.61-5.96,18.59-5.84,1.83.03,2.03-3.05-.15-4.29-1.68-.95-3.56-1.3-2.7-3.99.77-2.39,2.23-3.94,4.65-4.19,2.54-.27,5.14-.35,7.68-.13,2.95.26,7.14-1.52,8.52,1.4,1.11,2.37-3.16,3.84-4.71,5.98-.1.14-.23.25-.35.38-1.43,1.6-1.66,3.37-.54,5.19,1.22,1.99,3.23,2.57,5.36,2.24,2.53-.39,2.31-2.54,2.42-4.44.13-2.31-.77-4.99,1.78-6.57,8.55-5.29,17.73-7.12,27.39-3.95,5.02,1.65,9.7,4.31,14.6,6.35,2.83,1.18,4.61,2.82,4.23,6.14-.31,2.76.76,4.65,3.62,5.3,3.57.82,2.95,2.84,1.75,5.38-1.41,2.99-3.8,3.76-6.72,3.61-3.44-.18-6.01.8-7.11,4.43-.71,2.35-2.34,3.06-4.81,2.44-5.47-1.39-11-2.56-16.49-3.9-.93-.23-2.24-.36-2.46-1.51-.24-1.23.99-1.7,1.85-2.18,2.99-1.67,6.06-3.21,9.02-4.93,1.42-.82,4.01-1.12,3.78-2.95-.28-2.27-2.63-3.62-4.76-4.18-10.43-2.74-17.69,4.95-26.26,8.29-3.59,1.4.26,3.35-.1,5.03-.03.16-.16.4-.27.41-3.77.43-5.32,4.67-8.97,5.25-2.25.36-3.75-.72-4.08-2.89-.55-3.62-2.67-3.22-5.25-2.46-8.87,2.61-16.04,8.39-24,12.69-1.67.9-1.63,2.36-1.4,4.01.79,5.75,4.56,8.89,11.98,9.87,7.51.99,7.45.99,7.67,8.41.06,1.89-1.03,4.64,1.66,5.33,2.73.7,3.62-1.95,4.7-3.88,1.63-2.91,2.35-6.31,6.19-7.73,9.4-3.48,9.34-3.63,9.49-13.5.01-.86-.01-1.72.07-2.57.46-4.62,6.02-9.06,10.54-8.21,3.87.72,7.66,1.85,11.51,2.65,2.52.53,3.14,2.01,3.19,4.41.16,7.79.88,8.18,7.78,4.85,1.08-.52,2.19-1,3.22-1.6,3.64-2.12,5.42-1.76,5.59,3.11.15,4.43-.36,9.49,5.07,11.94,2.95,1.33,4.94,3.29,4.62,7.14-.32,3.89-2.18,5.88-5.74,6.75-1,.24-2.06.66-2.25,1.83-.25,1.58,1.19,1.94,2.18,2.47,1.81.97,3.73,1.73,5.55,2.68,2.45,1.28,2.62,3.47,1.89,5.76-.8,2.51-2.95,2.04-4.74,1.63-2.67-.6-5.28-1.47-7.89-2.3-5.84-1.87-6.36-3.4-2.89-8.61.71-1.06,1.43-2.11.48-3.22-1.11-1.29-1.94-.28-2.98.47-5.08,3.66-9.3,3.43-14.32-.54-2.11-1.68-4.5-1.44-6.84-.71-1.22.38-2.07,1.43-1.82,2.77.49,2.58,2.91,2.56,4.77,3.23,1.16.42,3.38.2,2.14,2.3-1,1.69-2.14,4.64-4.99,2.81-3.49-2.24-5.67-.54-8.07,1.73-4.76,4.5-8.59,9.72-14.75,13.06-9.92,5.37-18.73,12.51-22.08,24.22-.4,1.4-1.57,2.21-2.71,2.98-2.42,1.63-4.83,3.26-7.28,4.84-7.78,5-14.75,10.39-11.58,21.38.39,1.37.37,3.24-1.96,3.41-3.36.24-9.21-4.3-9.41-7.79-.21-3.73-2.19-4.58-5.38-4.52-4.8.08-9.6.12-14.39,0-15.28-.38-25.8,7.98-29.81,22.83-1.39,5.14-.21,9.23,3.06,12.72,2.52,2.69,10.29,2.32,14.05-.11,3.88-2.51,7.79-5,11.54-7.7,3.57-2.57,4.71-.81,5.44,2.55.63,2.88-.96,5.01-2.29,7.12-2.44,3.84-1.32,5.55,2.95,5.88.85.06,1.69.37,2.53.39,4.25.09,6.07,2.39,6.17,6.47.09,3.77.4,7.53.48,11.29.06,2.95,1.21,4.89,4.2,5.6,8.67,2.03,16.7,3.63,22.61-6.28,3.79-6.35,16.4-5.7,21.4.05,5.01,5.77,11.08,6.36,17.49,1.51,1.44-1.09,2.51-.42,3.79-.04,5.54,1.65,7.81,6.52,10.27,10.93,2.3,4.13,5.24,5.65,9.94,5.49,8.91-.29,13.27,3.61,14.75,12.37.23,1.35.42,2.75.29,4.09-.39,4.14,1.82,5.8,5.39,7.47,8.06,3.78,16.45,4.57,25.06,4.06,5.37-.32,9.33,1.18,11.5,6.41,1.26,3.02,3.56,5.03,6.86,5.6,4.89.85,5.46,3.73,4.1,7.89-.65,1.98-1.13,4.03-2.65,5.47-7.18,6.81-9.7,15.41-9.93,24.97-.06,2.39-.52,4.78-.49,7.17.07,5.9-2.95,9.63-7.54,13.05-3.74,2.78-7.48,1.78-11.3,1.83-6.54.08-10.23,4.51-8.96,11.01.39,2.02.68,4.08,1.36,6,1.42,4.01.27,7.1-2.33,10.34-5.44,6.81-11.4,13.28-15.22,21.26-.94,1.96-2.63,3.09-4.56,3.94-5.45,2.4-10.44,5.97-16.69,6.34-1.28.08-2.82.5-3.28,2.07-.28.96.43,1.47,1.19,2,5.24,3.62,5.29,4.14,1.14,8.99-3.2,3.74-2.46,5.95,2.76,6.57,3.99.47,5.5,2.59,4.09,5.78-3.52,7.97-.68,13.3,6.09,17.48.28.17.52.46.71.73,1.83,2.55.75,6.02-2.3,6.23-6.42.44-13.11,1.48-18.08-4.46-1.42-1.69-3.45-2.85-4.94-4.48-9.8-10.7-18.01-22.05-14.42-37.86.61-2.7.36-5.27-1.67-7.17-6.29-5.92-6.89-12.9-4.29-20.63.38-1.12.31-2.38.53-3.55.32-1.67.17-3.16-1.61-3.86-2.9-1.15-2.74-3.63-2.75-6.03-.02-10.45-.04-20.91-.01-31.36,0-2.63-.07-5.19-2.54-6.88-5.2-3.55-9.72-8.23-16.26-9.51-1.52-.3-3.26-.98-3.43-2.71-.77-7.63-6.14-12.56-10.71-17.71-5.81-6.56-10.37-13.08-7.15-22.35.21-.62.14-1.37.08-2.05-.58-6.46,1.98-10.91,7.68-14.28,5.93-3.5,6.49-6.71,4.22-14.44-1.41-4.81-5.76-3.35-9-4.19-1.13-.29-2.4-.23-3.58-.14-4.13.31-7.25-1.29-9.67-4.64-6.08-8.43-13.32-15.13-24.43-15.88-1.9-.13-3.02-1.14-3.36-3.22-.71-4.27-3.15-4.98-6.56-2.67-.9.61-1.7,1.17-2.78.92-10-2.27-21.08-2.42-25.88-14.34-1.02-2.53-2.16-4.6-.47-7.12,1.64-2.44.61-4.46-.85-6.57-5.62-8.11-12.37-15.68-12.65-26.39-.04-1.53-.69-3.4-2.74-2.93-2.18.5-1.08,2.46-1.16,3.89-.42,8.18,4.41,14.18,8.48,20.48,1.87,2.9,2.58,6.45-.36,8.21-2.71,1.63-6.33.56-8.69-2.28-.54-.65-.89-1.46-1.4-2.15-5.76-7.86-8.93-16.44-7.65-26.38.33-2.57.17-5.44-2.86-6.5-5.3-1.86-8.22-5.19-7.05-11.71Zm400.33-74.05c-.45-.02-.91-.04-1.36-.06,1.69,7.02-1.17,11.14-7.41,13.17-.78.25-1.59.83-1.56,1.82.05,1.33,1.17,1.63,2.17,1.7,3.74.25,7.52.81,11.21.46,4.62-.44,6.62-5.97,3.69-9.49-2.17-2.6-4.49-5.07-6.74-7.6Zm-272.76,41.25v-.04c1.53,0,3.06.04,4.59-.01,1.35-.05,2.92,0,3.48-1.54.65-1.78-.87-2.92-1.89-3.86-2.11-1.93-4.91-1.45-7.29-.86-2.75.68-7.31.72-6.97,4.3.29,3.08,4.54,1.59,7.07,2,.33.05.68,0,1.02,0Z"/>
    <path class="cls-2" d="m380.56,117.52c-2.32-1.73-4.06-3.74-3.03-6.92,1.05-3.22,3.61-4.16,6.68-4.7,3.02-.53,4.45.48,5,3.44,1.32,7.14,4.12,13.36,11,16.91,1.61.83,1.54,2.02.61,3.39-1.59,2.33-3.45,4.28-6.47,4.52-2.04.16-4.13.52-6.13.27-2.61-.33-6.41,1.77-7.48-2.22-.93-3.45-.25-6.73,4.14-8.06,1.92-.58,1.72-2.48.28-3.67-1.3-1.07-2.88-1.8-4.33-2.68l-.26-.27Z"/>
    <path class="cls-2" d="m380.82,117.79c.27,6.13-6.21,13.25-12.33,13.53-3.88.18-5.35-2.04-3.99-6.02,2.69-7.86,7.32-10.1,16.05-7.78,0,0,.26.27.26.27Z"/>
  </g>
  <text class="cls-1" transform="translate(582.49 292.62)"><tspan x="0" y="0">Mundo</tspan></text>
</svg>