<?xml version="1.0" encoding="UTF-8"?>
<svg id="Capa_1" data-name="Capa 1" xmlns="http://www.w3.org/2000/svg" viewBox="0 0 532 532">
  <defs>
    <style>
      .cls-1 {
        fill: #fff;
        stroke-width: 0px;
      }
    </style>
  </defs>
  <path class="cls-1" d="m0,288.86c0-15.24,0-30.48,0-45.72,1.24-8.37,2.29-16.78,3.76-25.11C21.42,118.15,97.77,35.05,195.77,8.74c15.58-4.18,31.44-6.59,47.37-8.74h45.72c10.4,1.69,20.95,2.41,31.22,4.89,103.98,25.02,171.73,88.65,203.09,190.9,4.83,15.76,6.89,32.08,8.83,48.39v43.64c-1.29,9.06-2,18.25-3.97,27.16-23.41,106.15-87.1,175.49-190.82,207.93-16.06,5.02-32.73,7.12-49.39,9.08h-43.64c-8.72-1.25-17.55-1.98-26.13-3.83-106.77-22.99-176.29-86.89-208.98-190.95-4.94-15.72-6.94-32.07-9.07-48.36Zm429.97-28.54c.27-6.35-.25-14.12-1.41-21.83-13.12-87.46-94.46-147.17-181.65-133.39-107.36,16.97-166.35,135.06-115.27,230.91,1.95,3.66,2.3,6.87,1.2,10.81-6.45,22.99-12.69,46.03-18.99,69.05-1.77,6.46-1.47,6.79,4.87,5.13,23.93-6.26,47.87-12.48,71.77-18.86,3.59-.96,6.59-.58,9.91,1.08,30.66,15.34,63.04,20.52,96.82,14.93,79.8-13.2,133.64-82.74,132.76-157.84Z"/>
  <path class="cls-1" d="m273.45,394.46c-26.16.03-48.61-6.16-69.31-18.4-3.63-2.14-6.85-2.33-10.77-1.25-12.84,3.55-25.74,6.83-38.64,10.16-5.44,1.4-5.98.91-4.56-4.37,3.48-13.03,6.98-26.06,10.67-39.04.88-3.1.55-5.6-1.17-8.3-15.89-24.91-23.27-52.29-20.5-81.59,4.79-50.72,30.32-88.24,76.31-110.25,80.18-38.37,174.41,12.64,187.76,100.91,10.94,72.37-40.68,141.09-113.25,150.95-6.21.84-12.43.62-16.54,1.17Zm39.75-57.15c1.56,0,3.12.07,4.67-.01,17.75-.94,31.59-13.46,33.81-30.59.46-3.56.49-7.12-3.37-8.99-10.43-5.06-20.88-10.05-31.37-14.98-3.64-1.71-6.58-.72-9.07,2.53-3.57,4.67-7.4,9.14-11.12,13.7-2.46,3.01-5.35,4.04-9.18,2.53-23.76-9.37-41.87-25.26-54.83-47.16-1.79-3.03-1.66-5.81.57-8.63,3.1-3.94,6.07-7.99,9.03-12.04,2.1-2.88,2.43-5.96,1.01-9.31-4.11-9.72-8.1-19.49-12.2-29.22-.95-2.25-2.14-4.38-4.56-5.43-7.02-3.05-16.68-1.06-22.11,4.54-6.03,6.22-10.27,13.38-12.05,21.98-2.62,12.66-.22,24.6,5.9,35.59,16.64,29.92,38.79,54.81,69.26,71.19,14.16,7.61,29.12,13.69,45.61,14.31Z"/>
</svg>