<?xml version="1.0" encoding="UTF-8"?>
<svg id="Capa_1" data-name="Capa 1" xmlns="http://www.w3.org/2000/svg" viewBox="0 0 532 532">
  <defs>
    <style>
      .cls-1 {
        fill: #fff;
        stroke-width: 0px;
      }
    </style>
  </defs>
  <path class="cls-1" d="m0,288.86C0,273.62,0,258.38,0,243.14c1.24-8.37,2.29-16.78,3.76-25.11C21.36,118.22,97.77,35.04,195.77,8.74c15.58-4.18,31.44-6.59,47.37-8.74h45.72c10.57,1.69,21.3,2.44,31.73,4.97,103.7,25.19,171.3,88.76,202.58,190.81,4.83,15.76,6.89,32.08,8.83,48.39v43.64c-1.29,9.06-2,18.25-3.97,27.16-23.4,106.15-87.09,175.49-190.82,207.93-16.06,5.02-32.73,7.12-49.39,9.08h-43.64c-8.72-1.25-17.55-1.98-26.13-3.83-106.77-22.99-176.29-86.89-208.97-190.96C4.14,321.5,2.14,305.15,0,288.86Zm265.53-137.89c-15.4,0-30.8-.2-46.2.05-24.22.39-48.41,1.38-72.5,4.13-21.9,2.5-35.94,14.34-40.39,34.32-2.3,10.32-3.42,20.82-4.2,31.34-1.76,23.83-2.3,47.69-1.13,71.57.74,15.21,1.72,30.39,4.35,45.41,3.7,21.12,15.11,33.69,34.2,37.61,5.41,1.11,10.92,1.85,16.42,2.37,33.45,3.14,67.04,3.42,100.59,4,23,.4,46.05-.09,69.04-.98,19.68-.77,39.39-1.5,59-3.86,23.99-2.88,37.38-14.26,41.47-37.93,6.25-36.15,6.16-72.66,4.23-109.18-.71-13.46-1.79-26.93-4.82-40.13-4.19-18.19-15.37-29.56-33.72-33.15-8.8-1.72-17.8-2.68-26.75-3.3-33.16-2.32-66.39-2.35-99.6-2.26Z"/>
  <path class="cls-1" d="m232.37,265.96c0-14.89-.04-29.78.02-44.67.02-5.2.76-5.64,5.31-3.03,25.98,14.9,51.93,29.85,77.86,44.84,4.2,2.43,4.19,3.37-.07,5.83-25.93,14.99-51.88,29.93-77.86,44.84-4.48,2.57-5.23,2.1-5.25-3.14-.05-14.89-.02-29.78-.02-44.67Z"/>
</svg>